<?xml version="1.0" encoding="UTF-8"?>
<svg fill="none" version="1.1" viewBox="0 0 128 128" xmlns="http://www.w3.org/2000/svg"><g stroke-width=".15445"><path d="m53.0461 21.8998h0.011c4.03011-14.7164 21.5914-21.8998 39.4873-21.8998 12.3666 0 23.4677 4.08916 31.078 10.5813-4.54166 0.22367-9.02604 1.15453-13.3044 2.76178 6.14944 2.38752 11.432 6.06042 15.347 10.6042-2.95367-0.53102-5.9489-0.76764-8.94534-0.70671 7.36476 11.1436 11.2994 24.3688 11.2785 37.9095 0 36.92-28.6533 66.8496-63.9991 66.8496-34.8009 0-63.9991-30.4356-63.9991-66.8496 0-5.75088 0.731413-11.6891 2.15214-17.2586 0.373119-1.16889 0.892373-2.29012 1.58179-2.70069 0.863056-0.51381 1.64934 1.01799 1.77553 1.51648 0.935745 3.66139 2.19489 7.22427 3.76126 10.6424-0.137067-7.63231 2.9842-14.5846 7.27756-20.5972 2.86361-4.00913 5.51866-7.72402 6.7438-18.4449 0.0822-0.71997 0.73506-1.23756 1.39516-1.01215 9.31815 3.18577 14.2991 19.3939 13.5257 32.9472 5.14735 0.76969 5.12363-4.84748 5.12363-4.84748-1.64572-5.28316-0.54857-15.1024 9.69127-19.4954z" fill="url(#paint0_linear_4383_20931)"/><path d="m125.904 44.1266c1.5561 36.7673-27.3805 68.4675-62.666 68.4675-33.0326 0-60.1006-26.6693-62.5491-60.518-0.436817 3.16967-0.666522 6.36681-0.687528 9.569 0.250514 36.2173 29.3773 66.3549 63.9991 66.3549 35.3457 0 63.9991-29.9296 63.9991-66.8496 0-5.88268-0.72962-11.5878-2.0956-17.0237z" fill="url(#paint1_radial_4383_20931)" opacity=".9"/><path d="m62.4394 26.7722c-0.68941-1.27402-3.87279-3.1591-5.26432-3.48759 5.26614-17.6196 32.0946-23.0287 48.5149-19.9116 6.83342 1.2988 15.3434 5.18749 17.9325 7.20832-7.61033-6.49215-18.7132-10.5813-31.0778-10.5813-17.896 0-35.4574 7.18338-39.4875 21.8998h-0.0293c-10.2398 4.39302-11.337 14.2162-9.69127 19.4973 1.57982-6.30114 9.09706-14.0443 19.1028-14.6248z" fill="url(#paint2_radial_4383_20931)" style="mix-blend-mode:screen"/><path d="m81.0373 14.6035c-14.376 2.95468-19.0735 3.92121-23.8845 8.69813 5.40335-14.9418 19.1961-17.9712 35.6312-11.1602-3.91148 0.84214-7.8272 1.66345-11.7467 2.46391z" fill="url(#paint3_linear_4383_20931)"/><path d="m3.47433 41.8462c-3.92776 16.7964-0.892373 36.538 16.9506 53.1053-5.31192-6.06816-11.7978-28.4723 2.51421-44.4779 0.96371-1.07923 2.62226-0.2865 2.67516 1.188 1.1795 33.2644 26.8761 53.5809 56.5021 49.7819-9.17927-0.5386-39.5367-11.6452-16.9542-16.0381 11.8032-2.29769 30.3098-5.89814 30.3098-23.2445 0-28.1188-20.8143-36.3395-33.4367-35.1171-8.63811 0.83646-16.327 6.5627-18.6933 14.3497 0.90884 3.06928-2.71354 5.21812-5.12907 4.85711 0.77541-13.5514-4.20556-29.769-13.5257-32.955-0.65829-0.22542-1.31295 0.29218-1.39516 1.0123-1.22514 10.7207-3.88019 14.4358-6.74183 18.4447-4.29533 6.01464-7.4166 12.965-7.27953 20.5974-1.56622-3.41829-2.82552-6.98102-3.76126-10.6424-0.104274-0.41263-0.676572-1.56432-1.3678-1.61783-0.374781-0.0286-0.574111 0.35328-0.667353 0.75643z" fill="url(#paint4_radial_4383_20931)"/><path d="m57.2318 87.107c17.3785 14.7394 52.3275 3.68822 52.3275-32.1488-14.1092 22.3391-32.0801 37.7489-52.3257 32.1488z" fill="url(#paint5_linear_4383_20931)" style="mix-blend-mode:screen"/><path d="m22.9392 50.4734c0.15808-0.18469 0.3571-0.32581 0.57971-0.41105 0.2226-0.0854 0.46182-0.11208 0.69667-0.078-12.8109 16.321-2.47764 44.9841 4.61344 52.0262 0.39669 1.17268-6.72733-4.92578-7.70917-6.35261-5.39428-4.78071-13.1254-28.4702 1.81935-45.1846z" fill="url(#paint6_linear_4383_20931)" style="mix-blend-mode:screen"/><path d="m63.9991 88.4572c17.3822 0 31.4747-12.01 31.4747-26.8257 0-14.8159-14.0925-26.8257-31.4747-26.8257-14.8296 0-31.4821 10.077-31.4747 27.2172 7e-3 26.4859 26.7955 41.7238 49.6303 39.4165-1.71508-0.20821-12.4158-0.80221-19.6476-9.34754-0.65285-0.76968-1.78475-2.11427-1.27094-2.98719 0.512-0.87292 1.92363-0.64941 2.76115-0.64941z" fill="url(#paint7_linear_4383_20931)"/><path d="m92.0453 49.442-24.8755 24.8642c-2.20713 1.63866-4.55677 1.75705-6.87542 0.27119l-24.3983-25.0439c0.69621-1.16842 1.47872-2.27843 2.34057-3.31947l2.56 2.50212c6.4071 6.27241 11.5874 11.3396 18.8888 17.8488 3.29505 2.93747 4.31905 2.88017 7.55184 0 8.3528-7.44905 14.462-13.0834 22.4033-20.4922 0.88512 1.0554 1.68863 2.18262 2.40283 3.37109z" fill="#fff" opacity=".6"/></g><mask id="mask0_4383_20931" x="303" y="432" width="418" height="334" maskUnits="userSpaceOnUse"><path d="m720.273 511.917c0 93.859-93.254 169.943-208.275 169.943-5.553 0-14.882-1.428-18.282 4.113-3.4 5.518 4.089 14.036 8.409 18.913 44.963 50.867 110.193 57.268 127.314 58.95l2.699 0.266c-151.103 14.617-328.366-81.916-328.414-249.704-0.158-27.937 7.617-55.344 22.421-79.037l162.235 147.352c11.543 10.479 30.987 10.479 42.53 0l165.308-150.147c15.367 23.692 24.055 50.699 24.055 79.351z" fill="#fff"/></mask><g transform="matrix(.151122 0 0 .157852 -13.375 -19.1757)" mask="url(#mask0_4383_20931)"><path d="m255.482 315.912h526.428v477.303h-526.428z" fill="url(#paint8_linear_4383_20931)" opacity=".7"/><g filter="url(#filter0_f_4383_20931)"><path d="m463.647 583.705c-30.673-31.919-122.535-137.974-122.535-137.974l7.103 0.314 143.819 107.411c10.768 7.828 26.135 7.744 36.807-0.182l141.024-107.083 7.477-0.593s-88.861 103.538-122.898 137.647c-34.036 34.11-60.124 32.38-90.797 0.46z" clip-rule="evenodd" fill="#458fcd" fill-rule="evenodd"/></g></g><path d="m68.415 21.3858c3.3682-1.10781 3.07185-4.58971 3.07185-4.58971s-1.6841-2.07229-5.02116-0.92438c-3.12308 1.07528-3.60773 3.39982-3.60773 3.39982s1.70601 3.38056 5.55704 2.11427z" fill="#fff" stroke-width=".15445"/><defs><filter id="filter0_f_4383_20931" x="302.393" y="406.878" width="413.669" height="240.08" color-interpolation-filters="sRGB" filterUnits="userSpaceOnUse"><feFlood flood-opacity="0" result="BackgroundImageFix"/><feBlend in="SourceGraphic" in2="BackgroundImageFix" result="shape"/><feGaussianBlur result="effect1_foregroundBlur_4383_20931" stdDeviation="19.3597"/></filter><linearGradient id="paint0_linear_4383_20931" x1="235.494" x2="832.5" y1="261.062" y2="817.921" gradientTransform="matrix(.151122 0 0 .157852 -13.375 -19.1757)" gradientUnits="userSpaceOnUse"><stop stop-color="#1B91F3" offset="0"/><stop stop-color="#0B68CB" offset="1"/></linearGradient><radialGradient id="paint1_radial_4383_20931" cx="0" cy="0" r="1" gradientTransform="matrix(21.5641 51.8467 -47.5493 21.5776 22.0467 52.2786)" gradientUnits="userSpaceOnUse"><stop stop-color="#0B4186" stop-opacity="0" offset=".53"/><stop stop-color="#0B4186" stop-opacity=".45" offset="1"/></radialGradient><radialGradient id="paint2_radial_4383_20931" cx="0" cy="0" r="1" gradientTransform="matrix(-7.12211 -9.52326 15.0869 -12.3104 65.6448 29.0623)" gradientUnits="userSpaceOnUse"><stop stop-color="#EF3ACC" stop-opacity="0" offset="0"/><stop stop-color="#EF3ACC" stop-opacity=".64" offset="1"/></radialGradient><linearGradient id="paint3_linear_4383_20931" x1="401.611" x2="616.432" y1="403.61" y2="164.469" gradientTransform="matrix(.151122 0 0 .157852 -13.375 -19.1757)" gradientUnits="userSpaceOnUse"><stop stop-color="#0F5DB0" offset="0"/><stop stop-color="#0F5DB0" stop-opacity="0" offset="1"/></linearGradient><radialGradient id="paint4_radial_4383_20931" cx="0" cy="0" r="1" gradientTransform="matrix(36.6623 -79.4384 93.9455 47.3057 39.8623 97.5738)" gradientUnits="userSpaceOnUse"><stop stop-color="#094188" offset=".02"/><stop stop-color="#0B4186" stop-opacity="0" offset=".97"/></radialGradient><linearGradient id="paint5_linear_4383_20931" x1="778.099" x2="678.214" y1="576.761" y2="822.012" gradientTransform="matrix(.151122 0 0 .157852 -13.375 -19.1757)" gradientUnits="userSpaceOnUse"><stop stop-color="#E247C4" stop-opacity="0" offset="0"/><stop stop-color="#E247C4" stop-opacity=".64" offset="1"/></linearGradient><linearGradient id="paint6_linear_4383_20931" x1="158.697" x2="246.699" y1="356.821" y2="711.008" gradientTransform="matrix(.151122 0 0 .157852 -13.375 -19.1757)" gradientUnits="userSpaceOnUse"><stop stop-color="#EF3ACC" offset=".1"/><stop stop-color="#EF3ACC" stop-opacity="0" offset="1"/></linearGradient><linearGradient id="paint7_linear_4383_20931" x1="511.999" x2="511.999" y1="404.204" y2="762.36" gradientTransform="matrix(.151122 0 0 .157852 -13.375 -19.1757)" gradientUnits="userSpaceOnUse"><stop stop-color="#fff" offset="0"/><stop stop-color="#BEE1FE" offset=".91"/><stop stop-color="#96CEFD" offset="1"/></linearGradient><linearGradient id="paint8_linear_4383_20931" x1="518.702" x2="518.702" y1="606.877" y2="756.915" gradientUnits="userSpaceOnUse"><stop stop-color="#BCE0FD" offset="0"/><stop stop-color="#88CCFC" offset="1"/></linearGradient></defs></svg>
